# xmcd CD database file
#
# Track frame offsets:
#	187
#	16000
#	28550
#	41550
#	56962
#	73162
#	84212
#	98450
#	111937
#	127012
#	140637
#
# Disc length: 2072 seconds
#
# Revision: 1
# Processed by: cddbd v1.5.2PL0 Copyright (c) Steve Scherf et al.
# Submitted via: CDex 1.51
#
DISCID=9008160b
DTITLE=Charlie Parker - Jazz perennial
DYEAR=1956
DGENRE=Jazz
TTITLE0=STAR EYS
TTITLE1=BLUES
TTITLE2=I'M IN THE MOOD FOR LOVE
TTITLE3=IN THE STILL OF THE NIGHT
TTITLE4=OLD FOLKS
TTITLE5=IF I LOVE AGAIN
TTITLE6=CARDBOARD
TTITLE7=VISA
TTITLE8=SEGMENT
TTITLE9=PASSPORT
TTITLE10=DIVERSE
EXTD=YEAR: 1956
EXTT0=
EXTT1=
EXTT2=
EXTT3=
EXTT4=
EXTT5=
EXTT6=
EXTT7=
EXTT8=
EXTT9=
EXTT10=
PLAYORDER=
